<mxfile host="app.diagrams.net" agent="Mozilla/5.0 (Windows NT 10.0; Win64; x64) AppleWebKit/537.36 (KHTML, like Gecko) Chrome/134.0.0.0 Safari/537.36" version="26.2.4">
  <diagram name="第 1 页" id="Sry36QNPKHKFNGIRxmHr">
    <mxGraphModel dx="1428" dy="751" grid="1" gridSize="10" guides="1" tooltips="1" connect="1" arrows="1" fold="1" page="1" pageScale="1" pageWidth="827" pageHeight="1169" math="0" shadow="0">
      <root>
        <mxCell id="0" />
        <mxCell id="1" parent="0" />
        <mxCell id="oVKJz21ijN3CRCaaMMc1-1" value="" style="ellipse;whiteSpace=wrap;html=1;aspect=fixed;fillColor=#f8cecc;strokeColor=#b85450;fontSize=16;" vertex="1" parent="1">
          <mxGeometry x="130" y="200" width="180" height="180" as="geometry" />
        </mxCell>
        <mxCell id="oVKJz21ijN3CRCaaMMc1-2" value="" style="ellipse;whiteSpace=wrap;html=1;aspect=fixed;fillColor=#fff2cc;strokeColor=#d6b656;fontSize=16;" vertex="1" parent="1">
          <mxGeometry x="500" y="200" width="180" height="180" as="geometry" />
        </mxCell>
        <mxCell id="oVKJz21ijN3CRCaaMMc1-3" value="" style="ellipse;whiteSpace=wrap;html=1;aspect=fixed;fillColor=#dae8fc;strokeColor=#6c8ebf;fontSize=16;" vertex="1" parent="1">
          <mxGeometry x="324" y="470" width="180" height="180" as="geometry" />
        </mxCell>
        <mxCell id="oVKJz21ijN3CRCaaMMc1-4" value="A1" style="whiteSpace=wrap;html=1;aspect=fixed;fillColor=#f8cecc;strokeColor=#b85450;fontSize=16;" vertex="1" parent="1">
          <mxGeometry x="160" y="230" width="50" height="50" as="geometry" />
        </mxCell>
        <mxCell id="oVKJz21ijN3CRCaaMMc1-5" value="A3" style="whiteSpace=wrap;html=1;aspect=fixed;fillColor=#f8cecc;strokeColor=#b85450;fontSize=16;" vertex="1" parent="1">
          <mxGeometry x="160" y="300" width="50" height="50" as="geometry" />
        </mxCell>
        <mxCell id="oVKJz21ijN3CRCaaMMc1-6" value="A2" style="whiteSpace=wrap;html=1;aspect=fixed;fillColor=#f8cecc;strokeColor=#b85450;fontSize=16;" vertex="1" parent="1">
          <mxGeometry x="230" y="230" width="50" height="50" as="geometry" />
        </mxCell>
        <mxCell id="oVKJz21ijN3CRCaaMMc1-7" value="P1" style="whiteSpace=wrap;html=1;aspect=fixed;fillColor=#e51400;fontColor=#ffffff;strokeColor=#B20000;fontSize=16;" vertex="1" parent="1">
          <mxGeometry x="230" y="300" width="50" height="50" as="geometry" />
        </mxCell>
        <mxCell id="oVKJz21ijN3CRCaaMMc1-8" value="A4" style="whiteSpace=wrap;html=1;aspect=fixed;fillColor=#fff2cc;strokeColor=#d6b656;fontSize=16;" vertex="1" parent="1">
          <mxGeometry x="530" y="230" width="50" height="50" as="geometry" />
        </mxCell>
        <mxCell id="oVKJz21ijN3CRCaaMMc1-9" value="A6" style="whiteSpace=wrap;html=1;aspect=fixed;fillColor=#fff2cc;strokeColor=#d6b656;fontSize=16;" vertex="1" parent="1">
          <mxGeometry x="530" y="300" width="50" height="50" as="geometry" />
        </mxCell>
        <mxCell id="oVKJz21ijN3CRCaaMMc1-10" value="A5" style="whiteSpace=wrap;html=1;aspect=fixed;fillColor=#fff2cc;strokeColor=#d6b656;fontSize=16;" vertex="1" parent="1">
          <mxGeometry x="600" y="230" width="50" height="50" as="geometry" />
        </mxCell>
        <mxCell id="oVKJz21ijN3CRCaaMMc1-11" value="P2" style="whiteSpace=wrap;html=1;aspect=fixed;fillColor=#e51400;fontColor=#ffffff;strokeColor=#B20000;fontSize=16;" vertex="1" parent="1">
          <mxGeometry x="600" y="300" width="50" height="50" as="geometry" />
        </mxCell>
        <mxCell id="oVKJz21ijN3CRCaaMMc1-12" value="A7" style="whiteSpace=wrap;html=1;aspect=fixed;fillColor=#dae8fc;strokeColor=#6c8ebf;fontSize=16;" vertex="1" parent="1">
          <mxGeometry x="350" y="500" width="50" height="50" as="geometry" />
        </mxCell>
        <mxCell id="oVKJz21ijN3CRCaaMMc1-13" value="A9" style="whiteSpace=wrap;html=1;aspect=fixed;fillColor=#dae8fc;strokeColor=#6c8ebf;fontSize=16;" vertex="1" parent="1">
          <mxGeometry x="350" y="570" width="50" height="50" as="geometry" />
        </mxCell>
        <mxCell id="oVKJz21ijN3CRCaaMMc1-14" value="A8" style="whiteSpace=wrap;html=1;aspect=fixed;fillColor=#dae8fc;strokeColor=#6c8ebf;fontSize=16;" vertex="1" parent="1">
          <mxGeometry x="430" y="500" width="50" height="50" as="geometry" />
        </mxCell>
        <mxCell id="oVKJz21ijN3CRCaaMMc1-15" value="P3" style="whiteSpace=wrap;html=1;aspect=fixed;fillColor=#e51400;fontColor=#ffffff;strokeColor=#B20000;fontSize=16;" vertex="1" parent="1">
          <mxGeometry x="430" y="570" width="50" height="50" as="geometry" />
        </mxCell>
        <mxCell id="oVKJz21ijN3CRCaaMMc1-16" value="RAID5" style="text;html=1;align=center;verticalAlign=middle;resizable=0;points=[];autosize=1;strokeColor=none;fillColor=none;fontSize=16;" vertex="1" parent="1">
          <mxGeometry x="365" y="380" width="70" height="30" as="geometry" />
        </mxCell>
        <mxCell id="oVKJz21ijN3CRCaaMMc1-17" value="" style="shape=flexArrow;endArrow=classic;startArrow=classic;html=1;rounded=0;fillColor=#dae8fc;strokeColor=#6c8ebf;fontSize=16;" edge="1" parent="1">
          <mxGeometry width="100" height="100" relative="1" as="geometry">
            <mxPoint x="340" y="289.5" as="sourcePoint" />
            <mxPoint x="480" y="289.5" as="targetPoint" />
          </mxGeometry>
        </mxCell>
        <mxCell id="oVKJz21ijN3CRCaaMMc1-18" value="" style="shape=flexArrow;endArrow=classic;startArrow=classic;html=1;rounded=0;fillColor=#dae8fc;strokeColor=#6c8ebf;fontSize=16;" edge="1" parent="1">
          <mxGeometry width="100" height="100" relative="1" as="geometry">
            <mxPoint x="320" y="470" as="sourcePoint" />
            <mxPoint x="260" y="390" as="targetPoint" />
          </mxGeometry>
        </mxCell>
        <mxCell id="oVKJz21ijN3CRCaaMMc1-19" value="" style="shape=flexArrow;endArrow=classic;startArrow=classic;html=1;rounded=0;fillColor=#dae8fc;strokeColor=#6c8ebf;fontSize=16;" edge="1" parent="1">
          <mxGeometry width="100" height="100" relative="1" as="geometry">
            <mxPoint x="510" y="480" as="sourcePoint" />
            <mxPoint x="570" y="390" as="targetPoint" />
          </mxGeometry>
        </mxCell>
      </root>
    </mxGraphModel>
  </diagram>
</mxfile>
